<mxfile host="app.diagrams.net" modified="2024-07-23T00:10:38.270Z" agent="Mozilla/5.0 (Windows NT 10.0; Win64; x64) AppleWebKit/537.36 (KHTML, like Gecko) Chrome/126.0.0.0 Safari/537.36" etag="FUeK-iEGqiQHl6YdJOMn" version="24.6.5" type="github">
  <diagram name="Page-1" id="-rFiT2QOCS_2W7RfbsIS">
    <mxGraphModel dx="794" dy="412" grid="1" gridSize="10" guides="1" tooltips="1" connect="1" arrows="1" fold="1" page="1" pageScale="1" pageWidth="827" pageHeight="1169" math="0" shadow="0">
      <root>
        <mxCell id="0" />
        <mxCell id="1" parent="0" />
        <mxCell id="SzXXKODQA_d7fAglRIwC-1" value="" style="edgeStyle=orthogonalEdgeStyle;rounded=0;orthogonalLoop=1;jettySize=auto;html=1;fontFamily=Helvetica;fontSize=12;fontColor=default;" edge="1" parent="1" source="SzXXKODQA_d7fAglRIwC-2" target="SzXXKODQA_d7fAglRIwC-9">
          <mxGeometry relative="1" as="geometry" />
        </mxCell>
        <mxCell id="SzXXKODQA_d7fAglRIwC-2" value="" style="rounded=1;whiteSpace=wrap;html=1;fillColor=#FF9999;strokeColor=#b85450;arcSize=15;" vertex="1" parent="1">
          <mxGeometry x="290" y="180" width="240" height="150" as="geometry" />
        </mxCell>
        <mxCell id="SzXXKODQA_d7fAglRIwC-3" value="" style="rounded=1;whiteSpace=wrap;html=1;fillColor=#b0e3e6;strokeColor=#0e8088;" vertex="1" parent="1">
          <mxGeometry x="312.5" y="20" width="347.5" height="105" as="geometry" />
        </mxCell>
        <mxCell id="SzXXKODQA_d7fAglRIwC-4" value="&lt;font style=&quot;font-size: 15px;&quot;&gt;Geographic, Environnemental and Climatic data&lt;/font&gt;" style="rounded=1;whiteSpace=wrap;html=1;fillColor=#dae8fc;strokeColor=#6c8ebf;" vertex="1" parent="1">
          <mxGeometry x="350" y="42.5" width="120" height="60" as="geometry" />
        </mxCell>
        <mxCell id="SzXXKODQA_d7fAglRIwC-5" value="&lt;font style=&quot;font-size: 15px;&quot;&gt;Genetic&lt;/font&gt;" style="rounded=1;whiteSpace=wrap;html=1;fillColor=#dae8fc;strokeColor=#6c8ebf;" vertex="1" parent="1">
          <mxGeometry x="500" y="42.5" width="120" height="60" as="geometry" />
        </mxCell>
        <mxCell id="SzXXKODQA_d7fAglRIwC-6" value="&lt;div style=&quot;&quot;&gt;&lt;span style=&quot;background-color: initial;&quot;&gt;Removing attributes:&lt;/span&gt;&lt;/div&gt;&lt;div&gt;&lt;ul style=&quot;margin-left: 0px; margin-top: 12px; padding-left: 0px;&quot;&gt;&lt;li style=&quot;&quot;&gt;Not relevant;&amp;nbsp;&lt;/li&gt;&lt;li&gt;Invariable (non-numerical data)&lt;/li&gt;&lt;li&gt;Missing Data (&amp;gt;95%)&lt;/li&gt;&lt;li&gt;Low variance (cut-off &lt;u&gt;&amp;lt;&lt;/u&gt; 0.1)&lt;/li&gt;&lt;/ul&gt;&lt;/div&gt;" style="rounded=1;whiteSpace=wrap;html=1;fillColor=#f8cecc;strokeColor=#b85450;align=center;" vertex="1" parent="1">
          <mxGeometry x="305" y="200" width="210" height="110" as="geometry" />
        </mxCell>
        <mxCell id="SzXXKODQA_d7fAglRIwC-7" value="&lt;font style=&quot;font-size: 15px;&quot;&gt;&lt;i&gt;aPhyloGeo&lt;/i&gt; software&lt;/font&gt;" style="rounded=1;whiteSpace=wrap;html=1;fillColor=#99FF99;strokeColor=#82b366;" vertex="1" parent="1">
          <mxGeometry x="312.5" y="382.5" width="320" height="60" as="geometry" />
        </mxCell>
        <mxCell id="SzXXKODQA_d7fAglRIwC-8" value="" style="endArrow=classic;html=1;rounded=0;entryX=0.75;entryY=0;entryDx=0;entryDy=0;exitX=0.625;exitY=1;exitDx=0;exitDy=0;exitPerimeter=0;" edge="1" parent="1">
          <mxGeometry width="50" height="50" relative="1" as="geometry">
            <mxPoint x="560" y="102.5" as="sourcePoint" />
            <mxPoint x="560" y="382.5" as="targetPoint" />
          </mxGeometry>
        </mxCell>
        <mxCell id="SzXXKODQA_d7fAglRIwC-9" value="&lt;div style=&quot;margin-top: 0px; margin-bottom: 0px; padding-left: 0px; padding-right: 0px;&quot;&gt;&lt;span style=&quot;background-color: initial; font-size: 15px;&quot;&gt;window size&lt;br&gt;&lt;/span&gt;&lt;span style=&quot;background-color: initial; font-size: 15px;&quot;&gt;step size&lt;br&gt;&lt;/span&gt;&lt;span style=&quot;background-color: initial; font-size: 15px;&quot;&gt;rate similarity&lt;/span&gt;&lt;br style=&quot;font-size: 16px;&quot;&gt;&lt;span style=&quot;background-color: initial; font-size: 15px;&quot;&gt;bootstrap amount&lt;/span&gt;&lt;br style=&quot;font-size: 16px;&quot;&gt;&lt;span style=&quot;background-color: initial; font-size: 15px;&quot;&gt;distance threshold&lt;/span&gt;&lt;br&gt;&lt;/div&gt;" style="rounded=1;whiteSpace=wrap;html=1;align=center;fillColor=#d5e8d4;strokeColor=#82b366;" vertex="1" parent="1">
          <mxGeometry x="312.5" y="442.5" width="320" height="110" as="geometry" />
        </mxCell>
        <mxCell id="SzXXKODQA_d7fAglRIwC-10" value="" style="endArrow=classic;html=1;rounded=0;entryX=0.32;entryY=-0.031;entryDx=0;entryDy=0;entryPerimeter=0;exitX=0.5;exitY=1;exitDx=0;exitDy=0;" edge="1" parent="1">
          <mxGeometry width="50" height="50" relative="1" as="geometry">
            <mxPoint x="410" y="552.5" as="sourcePoint" />
            <mxPoint x="410.19000000000005" y="592.5" as="targetPoint" />
          </mxGeometry>
        </mxCell>
        <mxCell id="SzXXKODQA_d7fAglRIwC-11" value="" style="endArrow=classic;html=1;rounded=0;entryX=0.32;entryY=-0.031;entryDx=0;entryDy=0;entryPerimeter=0;exitX=0.5;exitY=1;exitDx=0;exitDy=0;" edge="1" parent="1">
          <mxGeometry width="50" height="50" relative="1" as="geometry">
            <mxPoint x="559.76" y="552.5" as="sourcePoint" />
            <mxPoint x="559.95" y="592.5" as="targetPoint" />
          </mxGeometry>
        </mxCell>
        <mxCell id="SzXXKODQA_d7fAglRIwC-12" value="&lt;font style=&quot;font-size: 15px;&quot;&gt;Tree comparison distance&lt;/font&gt;" style="rounded=1;whiteSpace=wrap;html=1;fillColor=#fff2cc;strokeColor=#d6b656;" vertex="1" parent="1">
          <mxGeometry x="312.5" y="592.5" width="320" height="60" as="geometry" />
        </mxCell>
        <mxCell id="SzXXKODQA_d7fAglRIwC-13" value="Database&amp;nbsp;" style="text;html=1;align=center;verticalAlign=middle;whiteSpace=wrap;rounded=0;fontSize=16;" vertex="1" parent="1">
          <mxGeometry x="194.25" y="32.5" width="60" height="30" as="geometry" />
        </mxCell>
        <mxCell id="SzXXKODQA_d7fAglRIwC-14" value="Data pre-processing" style="text;html=1;align=center;verticalAlign=middle;whiteSpace=wrap;rounded=0;fontSize=16;" vertex="1" parent="1">
          <mxGeometry x="130" y="190.5" width="150" height="50" as="geometry" />
        </mxCell>
        <mxCell id="SzXXKODQA_d7fAglRIwC-15" value="Output" style="text;html=1;align=center;verticalAlign=middle;whiteSpace=wrap;rounded=0;fontSize=16;" vertex="1" parent="1">
          <mxGeometry x="205" y="558.5" width="57.5" height="50" as="geometry" />
        </mxCell>
        <mxCell id="SzXXKODQA_d7fAglRIwC-16" value="*Parameters" style="text;html=1;align=center;verticalAlign=middle;whiteSpace=wrap;rounded=0;fontSize=16;" vertex="1" parent="1">
          <mxGeometry x="181.25" y="449.5" width="87.5" height="50" as="geometry" />
        </mxCell>
        <mxCell id="SzXXKODQA_d7fAglRIwC-17" value="" style="image;html=1;image=img/lib/clip_art/computers/Database_Minus_128x128.png" vertex="1" parent="1">
          <mxGeometry x="175.75" y="240.5" width="58.5" height="52" as="geometry" />
        </mxCell>
        <mxCell id="SzXXKODQA_d7fAglRIwC-18" value="" style="image;html=1;image=img/lib/clip_art/computers/Database_128x128.png" vertex="1" parent="1">
          <mxGeometry x="159" y="62.5" width="53.5" height="50" as="geometry" />
        </mxCell>
        <mxCell id="SzXXKODQA_d7fAglRIwC-19" value="" style="outlineConnect=0;dashed=0;verticalLabelPosition=bottom;verticalAlign=top;align=center;html=1;shape=mxgraph.aws3.android;fillColor=#205E00;gradientColor=none;" vertex="1" parent="1">
          <mxGeometry x="205" y="392.5" width="40" height="40" as="geometry" />
        </mxCell>
        <mxCell id="SzXXKODQA_d7fAglRIwC-20" value="" style="shape=image;html=1;verticalAlign=top;verticalLabelPosition=bottom;labelBackgroundColor=#ffffff;imageAspect=0;aspect=fixed;image=https://cdn1.iconfinder.com/data/icons/CrystalClear/128x128/apps/package_utilities.png" vertex="1" parent="1">
          <mxGeometry x="205" y="492.5" width="48" height="48" as="geometry" />
        </mxCell>
        <mxCell id="SzXXKODQA_d7fAglRIwC-21" value="" style="shape=image;html=1;verticalAlign=top;verticalLabelPosition=bottom;labelBackgroundColor=#ffffff;imageAspect=0;aspect=fixed;image=https://cdn2.iconfinder.com/data/icons/css-vol-2/24/list-tree-128.png" vertex="1" parent="1">
          <mxGeometry x="212.5" y="608.5" width="44" height="44" as="geometry" />
        </mxCell>
        <mxCell id="SzXXKODQA_d7fAglRIwC-22" value="" style="sketch=0;points=[[0.015,0.015,0],[0.985,0.015,0],[0.985,0.985,0],[0.015,0.985,0],[0.25,0,0],[0.5,0,0],[0.75,0,0],[1,0.25,0],[1,0.5,0],[1,0.75,0],[0.75,1,0],[0.5,1,0],[0.25,1,0],[0,0.75,0],[0,0.5,0],[0,0.25,0]];verticalLabelPosition=bottom;html=1;verticalAlign=top;aspect=fixed;align=center;pointerEvents=1;shape=mxgraph.cisco19.rect;prIcon=cisco_dna_center;fillColor=#FAFAFA;strokeColor=#005073;" vertex="1" parent="1">
          <mxGeometry x="218.75" y="62.5" width="50" height="50" as="geometry" />
        </mxCell>
        <mxCell id="SzXXKODQA_d7fAglRIwC-23" value="" style="endArrow=classic;html=1;rounded=0;exitX=0.5;exitY=1;exitDx=0;exitDy=0;" edge="1" parent="1" source="SzXXKODQA_d7fAglRIwC-6">
          <mxGeometry width="50" height="50" relative="1" as="geometry">
            <mxPoint x="410" y="311.99999999999994" as="sourcePoint" />
            <mxPoint x="410" y="382" as="targetPoint" />
            <Array as="points">
              <mxPoint x="410" y="350" />
            </Array>
          </mxGeometry>
        </mxCell>
        <mxCell id="SzXXKODQA_d7fAglRIwC-24" value="" style="endArrow=classic;html=1;rounded=0;exitX=0.5;exitY=1;exitDx=0;exitDy=0;" edge="1" parent="1" source="SzXXKODQA_d7fAglRIwC-4">
          <mxGeometry width="50" height="50" relative="1" as="geometry">
            <mxPoint x="409.76" y="108" as="sourcePoint" />
            <mxPoint x="409.76" y="180" as="targetPoint" />
            <Array as="points">
              <mxPoint x="409.76" y="148" />
            </Array>
          </mxGeometry>
        </mxCell>
      </root>
    </mxGraphModel>
  </diagram>
</mxfile>
